# xmcd CD database file
#
# Track frame offsets:
#	150
#	14538
#	29241
#	44082
#	58378
#	73480
#	85588
#	99609
#	120198
#	139305
#	151303
#	163227
#	176126
#
# Disc length: 3554 seconds
#
# Revision: 0
# Processed by: cddbd v1.5.2PL0 Copyright (c) Steve Scherf et al.
# Submitted via: CDex 1.70beta2
#
DISCID=c40de00d
DTITLE=Metronome All-Stars - Jazz RoadsCD369 - Bebop -  Metronome All-Stars (1946-56)
DYEAR=1900
DGENRE=Jazz
TTITLE0=Sweet Lorraine
TTITLE1=Sweet Lorraine
TTITLE2=Nat Meets June
TTITLE3=Nat Meets June
TTITLE4=Leap Here
TTITLE5=Metronome Riff
TTITLE6=Overtime
TTITLE7=Overtime
TTITLE8=Victory Ball
TTITLE9=Victory Ball
TTITLE10=Double Date
TTITLE11=No Figs
TTITLE12=Billies's Bounce
EXTD=
EXTT0=
EXTT1=
EXTT2=
EXTT3=
EXTT4=
EXTT5=
EXTT6=
EXTT7=
EXTT8=
EXTT9=
EXTT10=
EXTT11=
EXTT12=
PLAYORDER=
